<svg xmlns="http://www.w3.org/2000/svg" width="403" height="398" viewBox="0 0 403 398" version="1.1"><path d="M 15.247 198.750 L 15.500 384.500 42.500 384.500 L 69.500 384.500 76.363 365.255 L 83.226 346.009 71.025 334.320 C 46.287 310.620, 23 277.244, 23 265.490 C 23 259.890, 24.737 256.925, 39.102 238 C 94.885 164.513, 107.431 115.408, 81.957 70.271 C 76.916 61.338, 83.701 65.313, 90.653 75.364 L 94.204 80.500 93.565 76 C 93.214 73.525, 91.600 66.325, 89.980 60 C 88.360 53.675, 86.763 47.375, 86.432 46 L 85.830 43.500 87.882 46 C 89.011 47.375, 91.749 52.023, 93.968 56.329 C 96.862 61.948, 98.182 63.688, 98.641 62.492 C 99.372 60.589, 98.295 35.408, 97.112 26.712 C 96.107 19.329, 96.970 20.282, 101.800 31.892 C 103.949 37.057, 105.938 40.882, 106.220 40.392 C 106.502 39.901, 107.764 36.350, 109.026 32.500 C 110.287 28.650, 112.579 22.688, 114.118 19.250 L 116.916 13 65.956 13 L 14.995 13 15.247 198.750 M 283.314 117.950 C 275.130 122.940, 274.327 133.929, 281.561 141.935 L 285.014 145.757 283.921 153.629 C 279.932 182.356, 260.422 204.003, 248.538 192.887 C 237.937 182.970, 228.774 167.129, 226.472 154.739 C 225.486 149.432, 224.807 149.383, 217.767 154.114 C 198.649 166.961, 197.561 168.506, 200.868 178.116 C 225.219 248.893, 326.039 224.569, 336.544 145.382 C 338.349 131.773, 296.237 110.070, 283.314 117.950 M 221 135.129 C 212.685 140.170, 201 149.261, 201 150.690 C 201 152.032, 201.262 152.057, 202.918 150.872 C 203.973 150.117, 209.598 146.215, 215.418 142.200 C 221.238 138.185, 226 134.472, 226 133.950 C 226 132.521, 224.858 132.790, 221 135.129 M 214.355 147.611 C 202.040 156.409, 198 159.979, 198 162.067 C 198 164.735, 198.420 164.582, 204.354 159.750 C 207.225 157.412, 212.820 153.283, 216.787 150.573 C 221.299 147.491, 224 144.964, 224 143.823 C 224 141.075, 222.901 141.507, 214.355 147.611 M 184.029 146.971 C 181.845 149.155, 178.734 153.564, 177.117 156.769 C 173.589 163.758, 156.187 220, 157.553 220 C 159.402 220, 190 147.834, 190 143.471 C 190 142.026, 187.521 143.479, 184.029 146.971 M 339.715 163.255 C 334.372 179.130, 334.389 179.036, 337.457 175.500 C 343.149 168.940, 348.137 157.138, 346.362 154.430 C 343.999 150.823, 343.819 151.062, 339.715 163.255 M 30 266.550 C 30 273.184, 39.051 288.131, 50.862 301 C 57.092 307.789, 57.990 305.428, 52.358 297.065 C 44.039 284.712, 46.885 278.500, 60.864 278.500 L 69.900 278.500 73.946 274.551 C 80.691 267.968, 80.725 265.127, 74.030 267.489 C 66.278 270.224, 49.943 268.536, 36.124 263.572 C 30.074 261.399, 30 261.435, 30 266.550 M 137.036 317.338 C 137.841 318.073, 150.650 327.401, 165.500 338.066 C 180.350 348.731, 200.794 363.654, 210.931 371.228 L 229.362 385 236.681 385 C 246.001 385, 246.856 386.087, 226.250 371.729 C 188.238 345.241, 126.132 307.377, 137.036 317.338 M 168.500 318.737 C 169.324 319.530, 253.309 366.295, 280.085 380.871 C 287.442 384.876, 287.952 385, 297.035 385 C 308.473 385, 308.808 385.371, 287.053 373.967 C 245.449 352.157, 163.605 314.029, 168.500 318.737 M 221.167 327.501 C 221.701 328.035, 245.162 336.222, 298.500 354.491 C 316.650 360.707, 344.100 370.114, 359.500 375.395 C 374.900 380.676, 387.637 384.998, 387.805 384.999 C 387.972 384.999, 387.972 382.863, 387.805 380.250 L 387.500 375.500 358.882 365.894 C 299.641 346.007, 216.494 322.827, 221.167 327.501 M 160.076 357.750 C 187.255 384.514, 196 390.956, 196 384.212 C 196 381.494, 136.721 331, 133.531 331 C 133.190 331, 145.135 343.038, 160.076 357.750 M 80.740 366.765 C 77.022 375.969, 73.984 383.852, 73.990 384.283 C 73.995 384.713, 79.045 384.938, 85.210 384.783 L 96.420 384.500 99.188 372.500 C 100.711 365.900, 101.952 360.050, 101.947 359.500 C 101.936 358.418, 89.908 349.990, 88.411 350.015 C 87.910 350.024, 84.458 357.561, 80.740 366.765 M 103.591 372.254 C 101.991 377.889, 100.481 383.063, 100.234 383.750 C 99.894 384.699, 102.309 385, 110.262 385 L 120.738 385 121.358 381.250 C 121.699 379.188, 121.983 375.593, 121.989 373.263 L 122 369.025 115.025 365.513 C 111.189 363.581, 107.701 362.002, 107.275 362.004 C 106.849 362.006, 105.191 366.618, 103.591 372.254 M 126.648 371.819 C 126.436 372.194, 125.956 375.313, 125.582 378.750 L 124.901 385 141.950 385 C 151.328 385, 158.990 384.663, 158.978 384.250 C 158.906 381.846, 154.907 379.188, 149.677 378.069 C 146.475 377.384, 140.070 375.545, 135.444 373.981 C 130.818 372.417, 126.859 371.444, 126.648 371.819" stroke="none" fill="#f5ede5" fill-rule="evenodd"/><path d="M -0 199.002 L -0 398.005 201.750 397.752 L 403.500 397.500 403.752 198.750 L 404.005 0 202.002 0 L 0 0 -0 199.002 M 0.490 199.500 C 0.490 308.950, 0.607 353.873, 0.750 299.330 C 0.893 244.786, 0.893 155.236, 0.750 100.330 C 0.607 45.423, 0.490 90.050, 0.490 199.500 M 15.247 198.750 L 15.500 384.500 42.500 384.500 L 69.500 384.500 76.363 365.255 L 83.226 346.009 71.025 334.320 C 46.287 310.620, 23 277.244, 23 265.490 C 23 259.890, 24.737 256.925, 39.102 238 C 94.885 164.513, 107.431 115.408, 81.957 70.271 C 76.916 61.338, 83.701 65.313, 90.653 75.364 L 94.204 80.500 93.565 76 C 93.214 73.525, 91.600 66.325, 89.980 60 C 88.360 53.675, 86.763 47.375, 86.432 46 L 85.830 43.500 87.882 46 C 89.011 47.375, 91.749 52.023, 93.968 56.329 C 96.862 61.948, 98.182 63.688, 98.641 62.492 C 99.372 60.589, 98.295 35.408, 97.112 26.712 C 96.107 19.329, 96.970 20.282, 101.800 31.892 C 103.949 37.057, 105.938 40.882, 106.220 40.392 C 106.502 39.901, 107.764 36.350, 109.026 32.500 C 110.287 28.650, 112.579 22.688, 114.118 19.250 L 116.916 13 65.956 13 L 14.995 13 15.247 198.750 M 283.314 117.950 C 275.130 122.940, 274.327 133.929, 281.561 141.935 L 285.014 145.757 283.921 153.629 C 279.932 182.356, 260.422 204.003, 248.538 192.887 C 237.937 182.970, 228.774 167.129, 226.472 154.739 C 225.486 149.432, 224.807 149.383, 217.767 154.114 C 198.649 166.961, 197.561 168.506, 200.868 178.116 C 225.219 248.893, 326.039 224.569, 336.544 145.382 C 338.349 131.773, 296.237 110.070, 283.314 117.950 M 221 135.129 C 212.685 140.170, 201 149.261, 201 150.690 C 201 152.032, 201.262 152.057, 202.918 150.872 C 203.973 150.117, 209.598 146.215, 215.418 142.200 C 221.238 138.185, 226 134.472, 226 133.950 C 226 132.521, 224.858 132.790, 221 135.129 M 214.355 147.611 C 202.040 156.409, 198 159.979, 198 162.067 C 198 164.735, 198.420 164.582, 204.354 159.750 C 207.225 157.412, 212.820 153.283, 216.787 150.573 C 221.299 147.491, 224 144.964, 224 143.823 C 224 141.075, 222.901 141.507, 214.355 147.611 M 184.029 146.971 C 181.845 149.155, 178.734 153.564, 177.117 156.769 C 173.589 163.758, 156.187 220, 157.553 220 C 159.402 220, 190 147.834, 190 143.471 C 190 142.026, 187.521 143.479, 184.029 146.971 M 339.715 163.255 C 334.372 179.130, 334.389 179.036, 337.457 175.500 C 343.149 168.940, 348.137 157.138, 346.362 154.430 C 343.999 150.823, 343.819 151.062, 339.715 163.255 M 30 266.550 C 30 273.184, 39.051 288.131, 50.862 301 C 57.092 307.789, 57.990 305.428, 52.358 297.065 C 44.039 284.712, 46.885 278.500, 60.864 278.500 L 69.900 278.500 73.946 274.551 C 80.691 267.968, 80.725 265.127, 74.030 267.489 C 66.278 270.224, 49.943 268.536, 36.124 263.572 C 30.074 261.399, 30 261.435, 30 266.550 M 137.036 317.338 C 137.841 318.073, 150.650 327.401, 165.500 338.066 C 180.350 348.731, 200.794 363.654, 210.931 371.228 L 229.362 385 236.681 385 C 246.001 385, 246.856 386.087, 226.250 371.729 C 188.238 345.241, 126.132 307.377, 137.036 317.338 M 168.500 318.737 C 169.324 319.530, 253.309 366.295, 280.085 380.871 C 287.442 384.876, 287.952 385, 297.035 385 C 308.473 385, 308.808 385.371, 287.053 373.967 C 245.449 352.157, 163.605 314.029, 168.500 318.737 M 221.167 327.501 C 221.701 328.035, 245.162 336.222, 298.500 354.491 C 316.650 360.707, 344.100 370.114, 359.500 375.395 C 374.900 380.676, 387.637 384.998, 387.805 384.999 C 387.972 384.999, 387.972 382.863, 387.805 380.250 L 387.500 375.500 358.882 365.894 C 299.641 346.007, 216.494 322.827, 221.167 327.501 M 160.076 357.750 C 187.255 384.514, 196 390.956, 196 384.212 C 196 381.494, 136.721 331, 133.531 331 C 133.190 331, 145.135 343.038, 160.076 357.750 M 80.740 366.765 C 77.022 375.969, 73.984 383.852, 73.990 384.283 C 73.995 384.713, 79.045 384.938, 85.210 384.783 L 96.420 384.500 99.188 372.500 C 100.711 365.900, 101.952 360.050, 101.947 359.500 C 101.936 358.418, 89.908 349.990, 88.411 350.015 C 87.910 350.024, 84.458 357.561, 80.740 366.765 M 103.591 372.254 C 101.991 377.889, 100.481 383.063, 100.234 383.750 C 99.894 384.699, 102.309 385, 110.262 385 L 120.738 385 121.358 381.250 C 121.699 379.188, 121.983 375.593, 121.989 373.263 L 122 369.025 115.025 365.513 C 111.189 363.581, 107.701 362.002, 107.275 362.004 C 106.849 362.006, 105.191 366.618, 103.591 372.254 M 126.648 371.819 C 126.436 372.194, 125.956 375.313, 125.582 378.750 L 124.901 385 141.950 385 C 151.328 385, 158.990 384.663, 158.978 384.250 C 158.906 381.846, 154.907 379.188, 149.677 378.069 C 146.475 377.384, 140.070 375.545, 135.444 373.981 C 130.818 372.417, 126.859 371.444, 126.648 371.819" stroke="none" fill="#251525" fill-rule="evenodd"/></svg>